<svg version="1.2" xmlns="http://www.w3.org/2000/svg" viewBox="0 0 1225 889" width="1225" height="889"><style>.a{fill:#9c1116;stroke:#9c1116;stroke-miterlimit:2.61;stroke-width:.5}.b{fill:#fff;stroke:#9c1116;stroke-miterlimit:2.61;stroke-width:.5}.c{fill:#9c1116;stroke:#9c1116;stroke-miterlimit:2.61;stroke-width:.8}.d{fill:#9c1116}.e{fill:#fff}.f{fill:none;stroke:#9c1116;stroke-miterlimit:2.61;stroke-width:8.3}.g{fill:none;stroke:#9c1116;stroke-miterlimit:2.61;stroke-width:12.3}.h{fill:none;stroke:#9c1116;stroke-miterlimit:2.61;stroke-width:1.2}.i{fill:none;stroke:#9c1116;stroke-miterlimit:2.61;stroke-width:1.2;stroke-dasharray:2.49,1.24}.j{fill:none;stroke:#9c1116;stroke-miterlimit:2.61;stroke-width:1.2;stroke-dasharray:2.49,1.25}.k{fill:none;stroke:#9c1116;stroke-miterlimit:2.61;stroke-width:1.4;stroke-dasharray:2.76,1.38}.l{fill:none;stroke:#9c1116;stroke-miterlimit:2.61;stroke-width:1.4;stroke-dasharray:2.78,1.39}</style><path fill-rule="evenodd" class="a" d="m390.6 743.6l9.4-12.9-56.9-53.9-43.3 23.2-5.1 0.9-38.5-7.1-3.8-0.7-1.8-3.2-23.2-42.2-1.8-3.3 1.4-3.6 13.4-31.3 3.3-3.8 46.1-27.4-19.1-74.7-48.3 0.6-4.8-1.5-29.3-21.3-3.1-2.3-0.3-3.7-2.6-50-0.2-4.2 3.2-2.5 31.9-25.3 4.9-1.8 45.5-0.6 15.7-77.2-35.7-25.7-2.7-3.2-17.1-37.2-1.9-4 2.4-3.7 25.9-40.5 2.1-3.4 4-0.4 38.6-3.3 4.5 1.1 39.4 22.4 57-55.1-25-36.5-1.3-5.1 2.6-39.9 0.2-4.1 3.5-2.1 43.4-26.5 3.3-2 3.6 1.3 36 13.3 3.9 3.1 24.9 38 75.2-17.2 1.1-49.2 1.9-4.9 24-28.6 2.5-3 3.7 0.1 50.7 1.4 3.8 0.2 2.3 3.1 23.4 31.9 1.5 4.3 2.4 44 73.6 17.4 27.5-40.1 4-3 36.7-12.7 3.8-1.3 3.4 2.2 39.9 28 3.2 2.1 0.3 3.8 2.6 35.9-1.2 4.8-25.4 41.4 54 53.9 46.1-24.4 4.4-1 36.6 3.5 4.3 0.3 2 3.8 24.7 44.6 1.9 3.4-1.5 3.5-13.3 31.3-2.5 3.1-40.4 28.9 17 76.9 49.9 2.3 4.6 1.7 27.4 22 3 2.5-0.1 4-2 48-0.1 3.9-3.1 2.3-31.4 22.7-4.5 1.4-47.6 1.2-15.8 79.4 41 23.2 3.4 3.5 14.6 32 1.7 3.5-1.7 3.5-21.3 41.9-1.7 3.5-3.8 0.8-37.9 7.3-5.3-0.8-47.4-24.6-53.9 55.9 12.1 15.2 10.5 13.1h-16.8l-465.9-1.8-15.5-0.1z"/><path fill-rule="evenodd" class="b" d="m417 734.4l-4.4 6.1 433.8 1.5-6.2-7.7-4.4-5.3 5-5 62.6-65.4 4.2-4.2 5.2 2.8 50.2 26 31.4-6 17.9-35.1-11.9-26.1-43.9-24.6-4.9-3 1.1-5.6 18-91.2 1.2-6.3 6.4-0.2 51.5-1.1 26.2-19 1.6-40.1-22-17.8-53.4-2.5-6.2-0.3-1.3-6-19.4-88.2-1.1-5.1 4.2-3 42.9-30.7 11-25.7-20.7-37.6-30.1-2.8-49.3 26.3-5.2 2.7-4.2-4.2-62.7-62.6-4.4-4.4 3.3-5.4 27.4-44.4-2.3-29.7-33.5-23.5-30.3 10.6-29.1 42.5-3.1 4.4-5.3-1.3-84.6-20.1-5.9-1.3-0.2-6-2.6-47.7-19.6-26.8-42.9-1.1-19.7 23.5-1.2 52.6-0.2 6.1-6 1.4-86.6 19.9-5.4 1.3-3.2-4.6-26.4-40.5-29.9-11.1-36.5 22.5-2.3 33.2 27 39.6 3.8 5.5-4.7 4.7-66 63.9-4.2 4.1-5.2-3-42.4-23.8-32.3 2.8-21.5 33.7 14.5 31.3 38.3 27.4 4.1 3.1-1 5-18.1 88.6-1.2 6.3-6.4 0.1-49.3 0.8-26.5 21 2.2 42.2 24 17.4 52.1-0.6 6.3-0.1 1.5 6.2 21.9 86.6 1.5 5.7-5.1 3.1-48.8 29-10.9 25.4 19.6 35.3 31.9 6.1 45.9-24.6 5-2.8 4.1 4 66.2 62.6 5 4.7z"/><path fill-rule="evenodd" class="c" d="m388.6 395.2l99.1-67.7 1.7 59 95.5-63.4v59.9l99.1-53.7 0.7 51.9 97.3-53.8 1.8 53.8 91.9-52.1 8.7 152.8-19.9 0.9-471.5 0.8-25.2 1.8 2.6-91.1z"/><path fill-rule="evenodd" class="d" d="m628.9 177.2c71.9 0 137.3 29.7 184.7 77.6 49.1 49.7 76.6 116.8 76.5 186.7 0.1 70-27.4 137-76.6 186.8-47.4 47.9-112.8 77.5-184.7 77.5-72 0-137.3-29.7-184.6-77.6-49.2-49.8-76.8-116.8-76.6-186.8-0.2-70 27.4-137 76.6-186.8 47.3-47.8 112.6-77.5 184.6-77.5zm0 15.9c-67.6 0-128.9 27.8-173.2 72.8-46.3 46.7-72.1 109.8-72.1 175.6-0.1 65.7 25.8 128.8 72.1 175.6 44.4 45.1 105.7 72.9 173.3 72.9 67.5 0 128.9-27.8 173.3-72.9 46.2-46.8 72-109.8 72-175.6 0.1-65.8-25.8-128.9-72-175.6-44.6-45-105.9-72.8-173.4-72.8z"/><path fill-rule="evenodd" class="e" d="m424.2 404.7v19h-26.1v-19z"/><path fill-rule="evenodd" class="e" d="m466.9 404.7v19h-26.2v-19z"/><path fill-rule="evenodd" class="e" d="m524.2 404.7v19h-26.2v-19z"/><path fill-rule="evenodd" class="e" d="m568.4 404.7v19h-26.1v-19z"/><path fill-rule="evenodd" class="e" d="m617 404.7v19h-26.1v-19z"/><path fill-rule="evenodd" class="e" d="m663 404.7v19h-26.1v-19z"/><path fill-rule="evenodd" class="e" d="m710.8 404.7v19h-26.1v-19z"/><path fill-rule="evenodd" class="e" d="m759.4 404.7v19h-26.1v-19z"/><path fill-rule="evenodd" class="e" d="m807.2 404.7v19h-26.1v-19z"/><path fill-rule="evenodd" class="e" d="m854.9 404.7v19h-26.1v-19z"/><path fill-rule="evenodd" class="f" d="m716.6 202.4c0 0-92.7 84.6 64.7 35.7"/><path fill-rule="evenodd" class="g" d="m698.1 257.1v126.3"/><path fill-rule="evenodd" class="d" d="m395.5 289.1l-5.1 9.7-12.2-1.4-9.3 17.6 8 9-5 9.6-35.1-40.8 5.1-9.5zm-26.4 7.2l-19.7-2.7 13.3 14.7zm29.9-10.9l-38.9-31.6 6.3-7.6 38.9 5.1-26-21 5.8-7.3 39 31.6-6.3 7.9-38.1-4.9 25.4 20.5zm32.4-39.2l-32.2-38.5 7.5-6.4 37.4 12.5-21.3-25.7 7.2-5.9 32.2 38.4-7.8 6.5-36.5-12 21.1 25.1zm78.7-54.1l-9.6 5.5-9.4-8-17.6 9.9 1.9 12-9.4 5.2-7.2-53.3 9.4-5.3zm-26.1-8.3l-14.9-12.9 3.1 19.6zm35.5-49.3l9.7-2.7 7 26.3c0.6 2.8 1.6 5.5 2.5 8.1 1 1.8 2.4 3.2 4.3 4 2.3 0.7 4.6 0.9 6.9 0.1 2.3-0.3 4.4-1.6 5.9-3.4 1.1-1.3 1.6-3.1 1.3-4.9-0.3-2.8-0.9-5.6-1.6-8.4l-7.4-26.8 9.9-2.6 6.9 25.5c1.2 4 2 8.2 2.5 12.4 0.1 2.4-0.3 4.8-1.3 6.9-1.1 2.2-2.7 4.1-4.7 5.6-2.7 1.8-5.7 3.2-8.9 3.9-4.6 1.3-8.2 1.7-10.9 1.3-2.4-0.3-4.8-1.3-6.8-2.6-1.7-1.3-3.1-2.7-4-4.6-1.9-3.9-3.4-8-4.3-12.1zm62.5 35.4l-3.5-50 9.8-0.8 22.8 32-2.4-33.5 9.4-0.6 3.6 50.2-10.2 0.7-22.5-31.3 2.3 32.8zm50.2-2.2l1-50.2 10.1 0.1-0.9 50.2zm32.4 2.9l-9.1-52.5 11 1.9 6 38.8 18.5-34.5 10.5 1.9-26.4 46.2zm33.3 6.3l16.3-47.5 35.3 12.1-2.8 8.1-25.6-8.8-3.6 10.5 23.8 8.3-2.8 8-23.7-8.1-4.6 12.9 26.6 9.2-2.8 7.9zm44.3 15.6l24.3-43.9 18.6 10.4c4.7 2.7 8 5 9.6 6.9 1.7 2 2.7 4.4 2.8 7 0.1 2.8-0.5 5.6-1.9 8.1-1.6 2.9-4.3 5.3-7.4 6.5q-4.7 1.4-10.9-0.7c1.3 1.9 2.1 3.9 2.7 6.2 0.6 3.3 1.1 6.6 1.2 9.9l0.6 11.6-10.7-6-1.1-13.2q-0.1-4.5-1.1-9c-0.3-1.2-0.9-2.4-1.6-3.2-1.3-1.3-2.7-2.3-4.3-3l-1.8-1-10.2 18.3zm23.1-20.5l6.4 3.7c4.3 2.4 7 3.6 8.3 3.9 1.3 0.3 2.4 0 3.6-0.6 1-0.6 2.1-1.5 2.7-2.7 0.7-1.2 1-2.7 0.7-4.3-0.3-1.3-1.2-2.7-2.4-3.6q-0.9-0.8-6.4-3.7l-6.9-4zm29.5 31.6l8.2 5.7c-1.5 2.4-2.3 5.1-1.9 7.9 0.5 2.6 2 4.9 4.2 6.5 2.5 2.2 4.8 3.1 7 3.1 1.9 0.1 3.7-0.6 5-2.1q1-1.3 1-3c-0.1-1.4-0.6-2.7-1.3-4q-1-1.7-4.7-6.9c-3.3-4.5-5.1-8.2-5.6-11.2-1.1-6.4 3-12.8 9.3-14.7 2.7-0.8 5.4-0.8 8 0.1 3.3 1.1 6.2 2.7 8.7 5 4.8 4 7.5 8.2 8.2 12.3 0.7 4.1-0.5 8.4-3.2 11.7l-8.2-6.2c1.3-1.8 1.8-3.9 1.5-6.1-0.6-2.1-1.9-4-3.7-5.3-1.7-1.7-4-2.7-6.5-3-1.3-0.1-2.6 0.4-3.3 1.3-0.7 1-1 2.2-0.7 3.3 0.2 1.6 1.9 4.6 5 8.5q3.6 4.5 6 9.8c1 2.4 1.3 5 1 7.5-0.5 2.8-1.8 5.3-3.7 7.4-1.8 2.3-4.2 3.8-7 4.6-2.9 1-5.8 1-8.7-0.1-3.5-1.2-6.8-3.1-9.6-5.6-4.9-4-7.6-8.3-8.3-12.8-0.8-4.5 0.2-8.9 3.3-13.7zm26.5 45.2l35.4-35.5 7.1 7.2-35.4 35.4zm20.3 23.2l32-26.9-9.5-11.4 6.5-5.4 25.7 30.5-6.8 5.6-9.5-11.4-31.9 26.8zm25.3 37.2l18.6-9.8 17-29.9 5.7 10.4-12 19.8 22.9 0.8 5.5 10.4-34.3-2.6-18.6 9.8z"/><path fill-rule="evenodd" class="h" d="m539.8 524.5c3.7-3.2 6.5-5.5 10.3-8.8 35.7-3 75.7-31.1 79.3-0.7 15-33.6 45.1 2.7 81.3 1.5 2.6 2.3 5.3 3.8 8 6.3 13.3 38.9 26.6 78.6 39.9 117.4-66.9 2.1-115.3-42.5-119.1 9.2l-19.3 0.3c-3.2-48-70-3.8-119.3-9.5 12.9-38.6 26-77.1 38.9-115.7z"/><path fill-rule="evenodd" class="h" d="m539.8 524.5c3.7-3.2 6.5-5.5 10.3-8.8 35.7-3 75.7-31.1 79.3-0.7 15-33.6 45.1 2.7 81.3 1.5 2.6 2.3 5.3 3.8 8 6.3 13.3 38.9 26.6 78.6 39.9 117.4-66.9 2.1-115.3-42.5-119.1 9.2l-19.3 0.3c-3.2-48-70-3.8-119.3-9.5 12.9-38.6 26-77.1 38.9-115.7z"/><path fill-rule="evenodd" class="h" d="m550.2 515.2c35.7-2.6 75.7-29.3 79.3-1.8 15.4-27.9 38.4-0.9 80.5 2.9l35.9 111.4c-68-7.6-92.1-41.8-115.6 7.9-32.4-53-47.6-13.7-116.7-7.2z"/><path fill-rule="evenodd" class="h" d="m629.8 513.9v119.5"/><path fill-rule="evenodd" class="i" d="m557 533.3c0 0 35-12.4 46.4-7 11.4 5.3 14.4 2.8 14.4 2.8"/><path fill-rule="evenodd" class="j" d="m557.1 541.6c0 0 34.4-12.5 45.6-6.9 11.2 5.5 14 2.8 14 2.8"/><path fill-rule="evenodd" class="k" d="m556.8 551.6c0 0 33.7-12.4 44.6-6.9 10.8 5.6 13.6 2.8 13.6 2.8"/><path fill-rule="evenodd" class="l" d="m556.8 561.2c0 0 32.6-12.4 43.2-6.9 10.5 5.6 13.1 3 13.1 3"/><path fill-rule="evenodd" class="i" d="m552.2 571c0 0 35.1-12.4 46.5-6.8 11.4 5.4 14.3 2.8 14.3 2.8"/><path fill-rule="evenodd" class="i" d="m550.7 579.8c0 0 35.1-12.4 46.5-6.9 11.4 5.5 14.3 2.9 14.3 2.9"/><path fill-rule="evenodd" class="i" d="m548.2 589.3c0 0 35.1-12.4 46.5-6.8 11.4 5.4 14.3 2.8 14.3 2.8"/><path fill-rule="evenodd" class="i" d="m545.7 597c0 0 35.1-12.4 46.5-6.9 11.4 5.4 14.3 2.8 14.3 2.8"/><path fill-rule="evenodd" class="i" d="m704.4 533.3c0 0-35.2-12.4-46.6-7-11.4 5.3-14.2 2.8-14.2 2.8"/><path fill-rule="evenodd" class="j" d="m704.5 541.6c0 0-34.4-12.5-45.6-6.9-11.2 5.5-14 2.8-14 2.8"/><path fill-rule="evenodd" class="k" d="m704.3 551.6c0 0-33.6-12.4-44.6-6.9-10.9 5.6-13.6 2.8-13.6 2.8"/><path fill-rule="evenodd" class="l" d="m704.3 561.2c0 0-32.7-12.4-43.1-6.9-10.6 5.6-13.4 3-13.4 3"/><path fill-rule="evenodd" class="i" d="m709.2 571c0 0-35.2-12.4-46.6-6.8-11.4 5.4-14.3 2.8-14.3 2.8"/><path fill-rule="evenodd" class="i" d="m710.7 579.8c0 0-35.2-12.4-46.6-6.9-11.4 5.5-14.2 2.9-14.2 2.9"/><path fill-rule="evenodd" class="i" d="m713.2 589.3c0 0-35.2-12.4-46.6-6.8-11.4 5.4-14.2 2.8-14.2 2.8"/><path fill-rule="evenodd" class="i" d="m715.8 597c0 0-35.2-12.4-46.6-6.9-11.4 5.4-14.2 2.8-14.2 2.8"/><path fill-rule="evenodd" class="a" d="m182.1 743.5h885.3v147.2h-893.4v-147.2z"/><path fill-rule="evenodd" class="b" d="m1051.4 759.4v115.2h-861.5v-115.2z"/><path fill-rule="evenodd" class="d" d="m211.8 850v-57.6h10.7c4 0 6.6 0.3 7.9 0.8q3 1.4 4.9 5.7 2.1 5.5 1.9 11.3c0.1 3.5-0.6 7.2-1.7 10.4-0.7 2.4-2.2 4.4-4.1 5.9-1.7 1.1-4.5 1.8-8.6 1.8h-4.3v21.7zm6.6-47.8v16.2h3.8c1.8 0.2 3.4-0.1 5-0.7 1-0.6 1.8-1.6 2.1-2.7 1.2-3.2 1.2-6.5 0-9.6-0.3-1.2-1.1-2.1-2.1-2.8-1.7-0.6-3.6-0.7-5.5-0.6zm24.1 47.9v-57.6h14.2c3.5 0 6 0.5 7.6 1.4 1.8 1.4 3.1 3.3 3.8 5.5 0.9 2.8 1.5 5.9 1.4 9.1 0.1 3.8-0.6 7.5-2.2 11-1.2 2.6-3.6 4.5-6.4 5.1 1.4 1.4 2.7 2.9 3.5 4.7 1.5 3 2.7 6.2 3.9 9.4l4.1 11.3h-8l-4.9-12.5c-1-2.9-2.2-5.8-3.5-8.5-0.5-1-1.1-1.8-1.9-2.4-1.1-0.5-2.3-0.8-3.5-0.6h-1.4v24h-6.7zm6.7-33.3h5.1c1.9 0.3 3.8 0 5.7-0.6 0.9-0.4 1.7-1.2 2-2.2 0.5-1.5 0.9-3 0.7-4.6 0-1.5-0.2-3-0.7-4.4-0.3-1-1.1-1.7-2.1-2.3-1.8-0.4-3.7-0.5-5.4-0.4h-5.3zm25.5 4.8c-0.1-5.7 0.5-11.4 2.2-16.9 0.9-3.8 2.8-7.1 5.4-10 2.3-2 5.3-3.3 8.5-3.2 4.7 0 8.5 2.6 11.5 7.8 3 5.2 4.5 12.5 4.5 22.1 0 9.6-1.6 17.2-4.7 22.5q-4.2 7.2-11.3 7.2-7.3 0-11.3-7.2c-3.3-5.4-4.8-12.9-4.8-22.3zm6.8-0.4c0 6.7 0.8 11.6 2.6 15 1.7 3.2 3.8 5 6.6 5 2.6 0 4.7-1.7 6.4-4.9 1.8-3.3 2.7-8.3 2.7-15.2 0-6.6-0.9-11.6-2.6-14.7-1.6-3.2-3.8-4.9-6.4-4.9-2.7 0-5 1.7-6.7 4.9-1.8 3.1-2.5 8.1-2.6 14.8zm45.9 7.6v-9.7h14.4v22.9c-1.6 2.5-3.7 4.7-6.2 6.3-2.4 1.7-5.1 2.6-8 2.6-3.3 0-6.3-1.2-8.7-3.3-2.8-3-4.8-6.4-5.9-10.3-1.4-5.3-2.3-10.7-2.3-16.1-0.1-5.4 0.7-11 2.3-16.2 1.1-3.8 3.1-7.3 5.8-10.3 2.3-2 5.3-3.3 8.6-3.3 3.5-0.1 7.1 1.5 9.5 4.3 2.4 2.8 3.9 7 4.5 12.6l-6.7 2.1c-0.2-2.5-1.3-4.7-2.7-6.7-1.2-1.5-3-2.4-4.8-2.4-2.9 0-5.2 1.6-6.8 4.7-1.8 3.2-2.8 8-2.8 14.5 0 6.9 1.1 12.1 3 15.8q2.5 4.7 6.6 4.7c1.5 0 2.9-0.6 4-1.3 1.5-1 2.8-2.2 3.8-3.6v-7.4zm20.5 21.3v-57.8h14.1c3.6 0 6.1 0.6 7.7 1.6 1.6 1.4 3.1 3.2 3.7 5.3 1 3 1.5 6.1 1.5 9.2 0.1 3.8-0.6 7.6-2.3 10.9-1.3 2.6-3.6 4.5-6.4 5.1 1.5 1.4 2.7 3.1 3.6 4.9 1.4 3 2.7 6.1 3.8 9.4l4 11.3h-7.8l-5-12.6c-0.9-2.9-2.1-5.7-3.4-8.6-0.5-0.9-1.2-1.7-2.1-2.4-0.9-0.4-2.2-0.7-3.3-0.6h-1.4v24.2h-6.7zm6.7-33.3h5c2 0.1 3.9 0 5.8-0.6 0.8-0.5 1.6-1.3 2-2.3 0.6-1.5 0.9-3 0.7-4.6 0-1.5-0.2-3.1-0.7-4.4-0.4-1-1.2-1.8-2.1-2.2-1.8-0.4-3.7-0.5-5.5-0.4h-5.2zm26.7 33.2v-57.7h24.5v9.8h-17.8v12.8h16.6v9.6h-16.6v15.7h18.5v9.8zm29.2-18.8l6.5-1.2c0.8 7.5 3.2 11 7.3 11 1.8 0.2 3.6-0.7 4.8-2.2 1.2-1.6 1.9-3.6 1.6-5.6 0-1.2-0.1-2.3-0.5-3.4-0.4-0.9-1-1.7-1.9-2.3q-2.8-1.6-6-3c-2.4-0.8-4.5-2.2-6.3-4-1.5-1.6-2.5-3.6-3.1-5.6-0.8-2.4-1.2-5-1.2-7.5 0-2.9 0.5-5.8 1.6-8.5 0.8-2.3 2.2-4.3 4.1-5.7 1.8-1.4 4.2-2.1 6.5-1.9 3.6-0.2 7.1 1.5 9.1 4.5 2.1 3.1 3.4 7.3 3.6 12.9l-6.9 0.6c-0.3-3.1-0.9-5.2-1.9-6.4-1-1.3-2.5-1.9-4.2-1.9-1.4-0.1-3 0.5-4 1.6-1.1 1.1-1.6 2.6-1.6 4 0 1.4 0.4 2.8 1.3 4 1 1.1 3 2.3 6.1 3.5 2.6 1 5.1 2.6 7.2 4.4 1.7 1.6 2.9 3.8 3.5 5.9 0.8 2.9 1.2 5.8 1.1 8.8 0.1 4.4-1 8.8-3.3 12.5-2.1 3.4-5.5 5.2-10.2 5.2-7.8 0-12.3-6.5-13.2-19.7zm30.8 0l6.5-1.2c0.8 7.5 3.1 11 7.3 11 1.9 0.2 3.7-0.7 4.8-2.2 1.3-1.6 1.9-3.6 1.7-5.6 0-1.2-0.1-2.3-0.6-3.4-0.3-0.9-1-1.7-1.9-2.3q-2.8-1.6-6-3c-2.4-0.8-4.5-2.2-6.2-4-1.5-1.6-2.6-3.6-3.2-5.6-0.7-2.4-1.1-5-1.1-7.5 0-2.9 0.5-5.8 1.5-8.5 0.9-2.3 2.2-4.3 4.1-5.7 1.9-1.4 4.2-2.1 6.5-1.9 3.7-0.2 7.1 1.5 9.2 4.5 2.1 3.1 3.3 7.3 3.5 12.9l-6.6 0.5c-0.2-3.1-0.9-5.2-1.9-6.5-1.1-1.2-2.5-1.8-4.2-1.8-1.5-0.1-2.9 0.5-4.1 1.5q-1.5 1.8-1.5 4.1c0 1.4 0.4 2.8 1.2 4 0.9 1.1 2.9 2.3 6.2 3.5 2.6 1 5.1 2.6 7.3 4.4 1.6 1.6 2.7 3.8 3.3 5.9 0.9 2.8 1.3 5.7 1.2 8.8 0.1 4.4-1.1 8.8-3.2 12.5-2.2 3.4-5.6 5.2-10.2 5.2q-12.2 0.2-13.6-19.6zm52.8 18.8v-47.9h-9.8v-9.8h26.4v9.8h-9.9v47.9zm20.8 0v-57.7h6.7v22.7h13.2v-22.7h6.6v57.7h-6.6v-25.2h-13.2v25.2zm33.4 0v-57.7h14c3.7 0 6.2 0.5 7.6 1.6 1.8 1.3 3.2 3.2 3.8 5.3 1.1 2.9 1.5 6.1 1.5 9.2 0.2 3.8-0.7 7.5-2.2 10.9-1.3 2.6-3.7 4.5-6.4 5.1 1.4 1.4 2.6 3 3.4 4.8 1.6 2.9 2.9 6.1 3.9 9.4l4.1 11.2h-8l-4.8-12.4c-1-3-2.3-5.9-3.5-8.6-0.5-1.1-1.2-1.8-2-2.4-1.1-0.5-2.3-0.7-3.5-0.6h-1.3v24h-6.6zm6.6-33.1h5c2 0.1 3.9 0 5.8-0.7 0.9-0.5 1.6-1.2 2-2.3 0.7-1.4 0.9-3 0.8-4.6q0-2.3-1-4.4c-0.3-1-1-1.7-2.1-2.3-1.7-0.3-3.6-0.4-5.4-0.3h-5.2zm25.3 4.7q-0.2-8.6 2.2-16.9c0.9-3.7 2.8-7.1 5.4-9.8 2.3-2.2 5.4-3.5 8.5-3.3 4.7 0 8.6 2.6 11.5 7.7 3 5.2 4.5 12.6 4.5 22 0 9.6-1.7 17.2-4.8 22.5q-4.1 7.2-11.2 7.2-7.2 0-11.3-7.2c-3.1-5.3-4.7-12.8-4.8-22.2zm6.9-0.3c0 6.6 0.9 11.5 2.6 14.9 1.8 3.4 3.9 5 6.6 5 2.6 0 4.7-1.6 6.5-4.8 1.8-3.4 2.6-8.5 2.6-15.3q0-10-2.5-14.7c-1.6-3.3-3.9-4.7-6.6-4.7-2.8 0-4.9 1.5-6.7 4.7-1.8 3.1-2.4 8.1-2.5 14.9zm30.3-28.9h6.7v31.2c0 4.9 0.1 8.1 0.2 9.4 0.1 2.2 0.9 4.2 2.1 6 1.1 1.3 2.7 2.1 4.4 2.1 1.5 0 2.8-0.5 3.8-1.5 1-1.1 1.8-2.5 2.1-4.2 0.4-3.7 0.6-7.5 0.4-11.2v-31.8h6.7v30.3c0.1 5.6-0.1 11.2-1 16.7-0.3 3.1-1.6 6.1-3.8 8.5-2.1 2.1-5.1 3.3-8 3.2-2.9 0.1-5.8-0.7-8-2.6-2.1-2-3.6-4.7-4.3-7.5-0.9-3.3-1.3-9.2-1.3-17.8zm49 36.3v-9.7h14.3v23c-1.5 2.5-3.6 4.7-6.1 6.2-2.4 1.7-5.1 2.7-8 2.7-3.3 0-6.4-1.1-8.7-3.4-2.8-2.9-4.8-6.4-5.9-10.2-1.4-5.4-2.3-10.7-2-16.1-0.3-5.5 0.6-11 2.1-16.3 1.1-3.7 3.1-7.3 5.8-10.2 2.3-2.1 5.3-3.3 8.6-3.3 3.6-0.2 7.1 1.4 9.5 4.2 2.4 2.9 3.9 7 4.6 12.7l-6.6 2.1c-0.3-2.5-1.2-4.7-2.8-6.7-1.1-1.6-2.8-2.4-4.7-2.4-3 0-5.1 1.6-6.9 4.7-1.8 3.1-2.6 7.9-2.6 14.4 0 6.9 0.9 12.2 2.8 15.8 1.7 3.2 3.9 4.6 6.7 4.6 1.4 0 2.8-0.4 4-1.1 1.5-1.1 2.8-2.2 3.7-3.7v-7.3zm20.6 21.3v-57.6h6.6v22.7h13.2v-22.7h6.7v57.6h-6.7v-25.2h-13.2v25.2zm46.2 0v-57.6h6.7v25.5l13.5-25.5h9.1l-12.4 22.4 13.2 35.2h-8.8l-9.2-27.1-5.4 9.7v17.4zm33.4 0v-57.6h6.5l13.6 38.5v-38.5h6.1v57.6h-6.6l-13.3-37.6v37.6zm31.9-28.4c-0.1-5.8 0.5-11.4 2.2-17 0.9-3.7 2.8-7.1 5.4-9.9 2.3-2.1 5.3-3.2 8.5-3.2 4.7 0 8.6 2.6 11.5 7.8 2.9 5.1 4.5 12.4 4.5 22.1 0 9.6-1.6 17.1-4.7 22.5q-4.2 7.2-11.3 7.2-7.2 0-11.3-7.2c-3.2-5.5-4.6-12.9-4.8-22.3zm6.9-0.4c0 6.7 0.9 11.6 2.6 14.9 1.8 3.3 4 5 6.6 5 2.6 0 4.7-1.6 6.5-4.9 1.7-3.2 2.6-8.3 2.6-15.1 0-6.8-0.9-11.7-2.5-14.8-1.6-3.1-3.9-4.8-6.6-4.8-2.8 0-4.9 1.7-6.7 4.8-1.8 3.1-2.4 8.2-2.5 14.9zm35.1 28.8l-7.9-57.6h6.9l4.9 39.4 6.1-39.4h7.9l5.8 40.2 5-40.2h6.7l-8.1 57.6h-6.9l-6.6-43-6.6 43zm39.2 0v-57.2h6.6v47.5h16.7v9.7zm28.1 0v-57.6h24.6v9.7h-18v12.8h16.7v9.7h-16.7v15.7h18.6v9.7zm30.8-57.6h12.2c2.3-0.2 4.8 0.3 7 1.5 1.9 1.2 3.3 3 4.4 5 1.5 2.9 2.5 5.8 3.1 9 0.9 4.5 1.3 9.3 1.2 13.9 0 4.4-0.4 8.8-1.2 13.1-0.6 3-1.6 5.9-3 8.7-1 2-2.5 3.7-4.4 5-2 1-4.3 1.6-6.7 1.5h-12.4v-57.7zm6.6 9.7v38.2h5c1.7 0.1 3.2-0.2 4.6-0.9 1-0.7 1.9-1.5 2.4-2.7 0.7-1.7 1.2-3.6 1.6-5.5 0.7-6.6 0.7-13.4 0-20.1-0.4-2-1-4-1.9-5.7-0.9-1.3-1.8-2.2-3.2-2.8-1.7-0.5-3.6-0.6-5.4-0.5zm42.2 26.6v-9.7h14.4v23c-1.6 2.5-3.7 4.7-6.2 6.2-2.4 1.7-5.1 2.7-8 2.7-3.3 0-6.3-1.3-8.6-3.4-2.9-2.9-4.9-6.4-6-10.2-1.4-5.2-2.2-10.6-2.1-16.1-0.1-5.5 0.7-11 2.2-16.3 1.1-3.7 3.1-7.3 5.9-10.2 2.2-2.1 5.2-3.3 8.5-3.3 3.6-0.2 7.1 1.4 9.5 4.2 2.4 2.9 3.8 7 4.6 12.7l-6.6 2.1c-0.2-2.5-1.3-4.7-2.7-6.7-1.2-1.6-3-2.4-4.8-2.4-3 0-5.2 1.6-6.9 4.7-1.8 3.1-2.7 7.9-2.7 14.4 0 6.9 1.1 12.2 3 15.8 1.5 3.2 3.8 4.6 6.6 4.6 1.4 0 2.9-0.4 3.9-1.1 1.6-1.1 2.9-2.2 3.8-3.7v-7.3zm20.6 21.3v-57.6h24.6v9.7h-18v12.8h16.7v9.7h-16.7v15.7h18.6v9.7z"/></svg>