<svg version="1.2" xmlns="http://www.w3.org/2000/svg" viewBox="0 0 305 165" width="305" height="165"><style>.a{fill:#9c1116;stroke:#9c1116;stroke-miterlimit:2.61;stroke-width:.5}.b{fill:#fff;stroke:#9c1116;stroke-miterlimit:2.61;stroke-width:.5}.c{fill:#9c1116;stroke:#9c1116;stroke-miterlimit:2.61;stroke-width:.8}.d{fill:#9c1116}.e{fill:#fff}.f{fill:none;stroke:#9c1116;stroke-miterlimit:2.61;stroke-width:8.3}.g{fill:none;stroke:#9c1116;stroke-miterlimit:2.61;stroke-width:12.3}.h{fill:none;stroke:#9c1116;stroke-miterlimit:2.61;stroke-width:1.2}.i{fill:none;stroke:#9c1116;stroke-miterlimit:2.61;stroke-width:1.2;stroke-dasharray:2.49,1.24}.j{fill:none;stroke:#9c1116;stroke-miterlimit:2.61;stroke-width:1.2;stroke-dasharray:2.49,1.25}.k{fill:none;stroke:#9c1116;stroke-miterlimit:2.61;stroke-width:1.4;stroke-dasharray:2.76,1.38}.l{fill:none;stroke:#9c1116;stroke-miterlimit:2.61;stroke-width:1.4;stroke-dasharray:2.78,1.39}</style><path fill-rule="evenodd" class="a" d="m73.4 142l3.2-2.4-19.3-10.3-14.7 4.5-1.7 0.1-13-1.3-1.3-0.2-0.6-0.6-7.9-8-0.6-0.6 0.5-0.8 4.5-5.9 1.1-0.8 15.6-5.2-6.4-14.2-16.4 0.2-1.6-0.3-10-4-1-0.5-0.1-0.7-0.9-9.6-0.1-0.7 1.1-0.5 10.8-4.9 1.7-0.3 15.4-0.1 5.3-14.7-12.1-4.9-0.9-0.6-5.8-7.1-0.6-0.8 0.8-0.6 8.8-7.7 0.7-0.6 1.3-0.2 13.1-0.6 1.6 0.2 13.3 4.3 19.3-10.4-8.5-7-0.4-1.1 0.9-7.4 0.1-0.9 1.1-0.3 14.8-5.1 1.1-0.5 1.2 0.3 12.2 2.6 1.3 0.6 8.4 7.1 25.5-3.2 0.4-9.3 0.7-1 8.1-5.4 0.8-0.6h1.3l17.2 0.3h1.3l0.7 0.6 8 6.1 0.5 0.8 0.8 8.3 24.9 3.4 9.3-7.6 1.4-0.6 12.4-2.5 1.3-0.2 1.2 0.5 13.5 5.2 1.1 0.5 0.1 0.7 0.9 6.9-0.4 0.9-8.6 7.9 18.3 10.1 15.6-4.6 1.5-0.2 12.4 0.6 1.4 0.2 0.7 0.7 8.4 8.5 0.6 0.6-0.5 0.6-4.5 6-0.8 0.6-13.7 5.5 5.7 14.6 16.9 0.5 1.6 0.3 9.3 4.3 1 0.4v0.8l-0.7 9.1v0.7l-1.1 0.5-10.6 4.3-1.6 0.3-16.1 0.1-5.3 15.2 13.8 4.4 1.2 0.7 4.9 6.1 0.6 0.6-0.6 0.6-7.2 8.1-0.5 0.6-1.3 0.1-12.9 1.5-1.8-0.1-16-4.8-18.3 10.7 4.1 2.9 3.6 2.5h-5.7l-157.9-0.4h-5.3z"/><path fill-rule="evenodd" class="b" d="m82.4 140.3l-1.5 1.1 147 0.3-2.1-1.5-1.5-0.9 1.7-1.1 21.2-12.3 1.4-0.9 1.8 0.6 17 4.9 10.6-1.1 6.1-6.7-4-5-14.9-4.7-1.7-0.6 0.4-1 6.1-17.3 0.4-1.2 2.2-0.1 17.4-0.2 8.9-3.6 0.5-7.6-7.4-3.4-18.1-0.5-2.1-0.1-0.5-1-6.5-16.9-0.4-0.9 1.4-0.6 14.6-5.8 3.7-4.9-7-7.2-10.2-0.6-16.7 5.1-1.8 0.4-1.4-0.7-21.3-11.9-1.5-0.9 1.2-1.1 9.2-8.3-0.7-5.7-11.4-4.5-10.3 2-9.8 8.2-1.1 0.7-1.8-0.1-28.6-3.9-2-0.3-0.1-1.1-0.9-9-6.6-5.1-14.6-0.3-6.6 4.5-0.4 9.9-0.1 1.2-2 0.3-29.4 3.8-1.8 0.3-1.1-0.9-9-7.8-10.1-2.1-12.4 4.4-0.7 6.2 9.1 7.6 1.3 1.1-1.6 0.9-22.4 12-1.4 0.9-1.7-0.6-14.4-4.6-11 0.6-7.2 6.4 4.9 6 12.9 5.2 1.4 0.6-0.3 0.9-6.1 16.8-0.4 1.2h-2.2l-16.7 0.2-9 4 0.7 8.1 8.2 3.3h17.6l2.2-0.2 0.5 1.2 7.4 16.5 0.5 1.1-1.7 0.6-16.6 5.5-3.6 4.9 6.6 6.7 10.8 1.1 15.6-4.6 1.7-0.6 1.3 0.9 22.5 11.7 1.7 0.9z"/><path fill-rule="evenodd" class="c" d="m72.7 75.8l33.6-13 0.6 11.3 32.3-12.1v11.4l33.6-10.2 0.3 9.9 32.9-10.3 0.7 10.3 31.1-10 2.9 29.1-6.7 0.1-159.8 0.2-8.5 0.4 0.9-17.3z"/><path fill-rule="evenodd" class="d" d="m154.2 34.1c24.3 0 46.5 5.7 62.6 14.8 16.6 9.6 25.9 22.4 25.9 35.7 0 13.2-9.3 26-26 35.4-16 9.1-38.2 14.8-62.6 14.8-24.4 0-46.5-5.7-62.5-14.8-16.7-9.5-26.1-22.2-26-35.4-0.1-13.5 9.3-26.1 26-35.7 16-9.1 38.1-14.8 62.5-14.8zm0 3.2c-22.9 0-43.7 5.2-58.7 13.8-15.7 8.8-24.4 20.9-24.4 33.5 0 12.3 8.7 24.4 24.4 33.4 15.1 8.5 35.9 13.8 58.8 13.8 22.8 0 43.6-5.3 58.7-13.8 15.6-9 24.4-20.9 24.4-33.4 0-12.6-8.8-24.7-24.4-33.5-15.1-8.6-35.9-13.8-58.8-13.8z"/><path fill-rule="evenodd" class="e" d="m84.8 77.5v3.6h-8.9v-3.6z"/><path fill-rule="evenodd" class="e" d="m99.3 77.5v3.6h-8.9v-3.6z"/><path fill-rule="evenodd" class="e" d="m118.7 77.5v3.6h-8.9v-3.6z"/><path fill-rule="evenodd" class="e" d="m133.7 77.5v3.6h-8.9v-3.6z"/><path fill-rule="evenodd" class="e" d="m150.1 77.5v3.6h-8.8v-3.6z"/><path fill-rule="evenodd" class="e" d="m165.7 77.5v3.6h-8.8v-3.6z"/><path fill-rule="evenodd" class="e" d="m181.9 77.5v3.6h-8.8v-3.6z"/><path fill-rule="evenodd" class="e" d="m198.4 77.5v3.6h-8.9v-3.6z"/><path fill-rule="evenodd" class="e" d="m214.6 77.5v3.6h-8.9v-3.6z"/><path fill-rule="evenodd" class="e" d="m230.7 77.5v3.6h-8.8v-3.6z"/><path fill-rule="evenodd" class="f" d="m183.9 39.1c0 0-31.4 16.1 21.9 6.7"/><path fill-rule="evenodd" class="g" d="m177.6 49.4v24.1"/><path fill-rule="evenodd" class="d" d="m75.1 55.5l-1.8 1.9-4.1-0.3-3.2 3.3 2.8 1.8-1.7 1.8-11.9-7.8 1.7-1.8zm-8.9 1.4l-6.7-0.5 4.5 2.7zm10.1-2.1l-13.2-5.9 2.2-1.5 13.2 1-8.9-4 2-1.4 13.2 6-2.1 1.5-12.9-0.9 8.6 3.9zm11-7.5l-10.9-7.3 2.5-1.2 12.7 2.4-7.3-4.9 2.5-1.2 10.9 7.3-2.6 1.3-12.4-2.3 7.1 4.7zm26.7-10.3l-3.2 1.1-3.2-1.5-6 1.9 0.7 2.3-3.2 1-2.5-10.1 3.2-1.1zm-8.8-1.6l-5.1-2.4 1.1 3.7zm12-9.4l3.3-0.4 2.4 4.9c0.2 0.6 0.5 1.1 0.8 1.6q0.5 0.5 1.5 0.8c0.7 0.1 1.5 0.1 2.3 0 0.8-0.2 1.5-0.3 2-0.8 0.4-0.1 0.5-0.5 0.4-0.8-0.1-0.5-0.3-1.1-0.5-1.7l-2.5-5.1 3.3-0.4 2.4 4.8q0.6 1.2 0.8 2.4 0.1 0.7-0.4 1.3-0.6 0.6-1.6 1-1.4 0.6-3 0.8-2.3 0.4-3.7 0.3c-0.8-0.2-1.6-0.3-2.3-0.5-0.6-0.3-1.1-0.6-1.4-0.9-0.6-0.7-1.1-1.6-1.4-2.3zm21.2 6.7l-1.2-9.4 3.3-0.2 7.7 6-0.8-6.3 3.2-0.1 1.2 9.5-3.5 0.2-7.6-6 0.8 6.3zm17-0.5l0.4-9.5h3.4l-0.3 9.5zm11 0.6l-3.1-10 3.7 0.3 2 7.5 6.3-6.6 3.6 0.3-9 8.8zm11.3 1.2l5.5-8.9 12 2.2-1 1.5-8.6-1.7-1.3 2 8.1 1.6-0.9 1.5-8.1-1.5-1.5 2.4 9 1.8-1 1.5zm15 3l8.3-8.4 6.3 2c1.6 0.6 2.7 1 3.2 1.3 0.6 0.5 0.9 0.9 1 1.3q0 0.9-0.7 1.5c-0.5 0.6-1.4 1.1-2.5 1.4q-1.6 0.3-3.7-0.2c0.5 0.3 0.7 0.8 1 1.2 0.2 0.6 0.3 1.2 0.4 1.8l0.2 2.3-3.7-1.1-0.3-2.5q-0.1-0.9-0.4-1.8c-0.1-0.2-0.3-0.5-0.6-0.6q-0.6-0.3-1.4-0.6l-0.6-0.2-3.5 3.5zm7.9-3.9l2.1 0.7c1.5 0.5 2.4 0.8 2.8 0.8 0.5 0 0.8 0 1.3-0.2 0.3-0.1 0.7-0.3 0.9-0.4 0.2-0.3 0.3-0.6 0.2-0.9-0.1-0.2-0.4-0.5-0.8-0.6q-0.3-0.2-2.2-0.7l-2.3-0.8zm10 6l2.8 1c-0.5 0.5-0.8 1.1-0.7 1.5 0.2 0.6 0.7 1 1.4 1.3q1.3 0.6 2.4 0.6c0.7 0 1.3-0.1 1.7-0.4q0.3-0.3 0.3-0.6c0-0.3-0.2-0.4-0.4-0.7q-0.3-0.3-1.6-1.4c-1.1-0.7-1.7-1.5-1.9-2.1-0.4-1.2 1-2.4 3.2-2.8q1.3-0.2 2.7 0 1.7 0.3 2.9 1 2.5 1.2 2.8 2.3c0.2 0.9-0.2 1.6-1.1 2.2l-2.8-1.2q0.7-0.4 0.5-1c-0.2-0.5-0.6-0.8-1.2-1.1-0.6-0.3-1.4-0.6-2.2-0.6-0.4 0-0.9 0.2-1.1 0.3-0.3 0.2-0.4 0.5-0.3 0.6 0.1 0.3 0.7 0.9 1.7 1.7q1.3 0.9 2.1 1.8 0.5 0.7 0.3 1.4c-0.2 0.5-0.6 1.1-1.3 1.4-0.6 0.4-1.4 0.7-2.3 0.9q-1.5 0.3-3 0c-1.2-0.2-2.3-0.6-3.2-1.1-1.7-0.7-2.6-1.6-2.8-2.3-0.3-0.9 0-1.8 1.1-2.7zm9 8.6l12-6.7 2.4 1.4-12 6.7zm6.8 4.3l10.9-5.1-3.2-2.1 2.2-1 8.7 5.8-2.3 1-3.2-2.2-10.8 5.1zm8.5 7.1l6.3-1.9 5.8-5.7 1.9 2.1-4 3.7 7.7 0.2 1.9 1.9-11.6-0.4-6.3 1.8z"/><path fill-rule="evenodd" class="h" d="m124 100.4c1.2-0.6 2.2-1.1 3.5-1.8 12.1-0.5 25.6-5.8 26.8 0 5.1-6.4 15.3 0.4 27.6 0.1 0.9 0.5 1.8 0.8 2.7 1.2 4.5 7.5 9 15.1 13.5 22.4-22.7 0.4-39.1-8.1-40.3 1.8h-6.6c-1.1-9.1-23.7-0.6-40.4-1.8q6.6-11 13.2-21.9z"/><path fill-rule="evenodd" class="h" d="m124 100.4c1.2-0.6 2.2-1.1 3.5-1.8 12.1-0.5 25.6-5.8 26.8 0 5.1-6.4 15.3 0.4 27.6 0.1 0.9 0.5 1.8 0.8 2.7 1.2 4.5 7.5 9 15.1 13.5 22.4-22.7 0.4-39.1-8.1-40.3 1.8h-6.6c-1.1-9.1-23.7-0.6-40.4-1.8q6.6-11 13.2-21.9z"/><path fill-rule="evenodd" class="h" d="m127.5 98.6c12.1-0.6 25.6-5.7 26.9-0.3 5.2-5.4 13-0.3 27.2 0.4l12.2 21.2c-23-1.3-31.2-7.9-39.2 1.5-10.9-10-16.1-2.5-39.5-1.4z"/><path fill-rule="evenodd" class="h" d="m154.5 98.3v22.8"/><path fill-rule="evenodd" class="i" d="m129.8 102c0 0 11.9-2.4 15.7-1.3 3.9 1 4.9 0.6 4.9 0.6"/><path fill-rule="evenodd" class="j" d="m129.8 103.5c0 0 11.7-2.2 15.5-1.2 3.8 1 4.7 0.4 4.7 0.4"/><path fill-rule="evenodd" class="k" d="m129.7 105.4c0 0 11.4-2.4 15.1-1.3 3.7 1.2 4.7 0.6 4.7 0.6"/><path fill-rule="evenodd" class="l" d="m129.7 107.4c0 0 11.1-2.4 14.7-1.4 3.5 1.1 4.4 0.6 4.4 0.6"/><path fill-rule="evenodd" class="i" d="m128.2 109.2c0 0 11.9-2.4 15.7-1.4 3.9 1.1 4.9 0.6 4.9 0.6"/><path fill-rule="evenodd" class="i" d="m127.7 110.8c0 0 11.9-2.4 15.7-1.3 3.9 1 4.9 0.6 4.9 0.6"/><path fill-rule="evenodd" class="i" d="m126.8 112.6c0 0 11.9-2.2 15.8-1.2 3.8 1 4.8 0.4 4.8 0.4"/><path fill-rule="evenodd" class="i" d="m126 114.1c0 0 11.9-2.4 15.7-1.4 3.9 1.1 4.9 0.6 4.9 0.6"/><path fill-rule="evenodd" class="i" d="m179.7 102c0 0-11.9-2.4-15.7-1.3-3.9 1-4.9 0.6-4.9 0.6"/><path fill-rule="evenodd" class="j" d="m179.8 103.5c0 0-11.7-2.2-15.5-1.2-3.8 1-4.7 0.4-4.7 0.4"/><path fill-rule="evenodd" class="k" d="m179.7 105.4c0 0-11.4-2.4-15.1-1.3-3.7 1.2-4.6 0.6-4.6 0.6"/><path fill-rule="evenodd" class="l" d="m179.7 107.4c0 0-11.1-2.4-14.6-1.4-3.6 1.1-4.5 0.6-4.5 0.6"/><path fill-rule="evenodd" class="i" d="m181.4 109.2c0 0-12-2.4-15.8-1.4-3.9 1.1-4.9 0.6-4.9 0.6"/><path fill-rule="evenodd" class="i" d="m181.9 110.8c0 0-11.9-2.4-15.8-1.3-3.9 1-4.8 0.6-4.8 0.6"/><path fill-rule="evenodd" class="i" d="m182.7 112.6c0 0-11.9-2.2-15.8-1.2-3.8 1-4.8 0.4-4.8 0.4"/><path fill-rule="evenodd" class="i" d="m183.6 114.1c0 0-11.9-2.4-15.8-1.4-3.8 1.1-4.8 0.6-4.8 0.6"/><path fill-rule="evenodd" class="a" d="m2.7 142h300.1v28h-302.8v-28z"/><path fill-rule="evenodd" class="b" d="m297.3 144.9v22h-291.9v-22z"/><path fill-rule="evenodd" class="d" d="m12.8 162.2v-10.8h3.6q2.1 0 2.7 0.1 1 0.2 1.7 1.1 0.7 1 0.6 2c0.1 0.8-0.2 1.4-0.6 2.1-0.2 0.5-0.7 0.8-1.3 1.1-0.6 0.1-1.6 0.3-3 0.3h-1.4v4.1zm2.2-9.1v3.2h1.3c0.6 0 1.2 0 1.7-0.2 0.3-0.1 0.6-0.3 0.7-0.6q0.6-0.9 0-1.8c-0.1-0.1-0.4-0.4-0.7-0.4-0.6-0.2-1.2-0.2-1.9-0.2zm8.2 9.1v-11h4.8q1.8 0 2.6 0.3 0.9 0.5 1.3 1.1c0.3 0.5 0.5 1.1 0.5 1.7q0 1.1-0.8 2.1c-0.4 0.5-1.2 0.9-2.2 0.9 0.5 0.3 1 0.6 1.2 0.9 0.5 0.6 0.9 1.2 1.3 1.8l1.4 2.2h-2.7l-1.6-2.3q-0.6-0.9-1.2-1.7-0.3-0.3-0.7-0.4-0.5-0.2-1.2-0.2h-0.4v4.6zm2.3-6.4h1.7q1 0.2 1.9 0c0.3-0.1 0.6-0.3 0.7-0.4 0.2-0.3 0.3-0.6 0.2-0.9q0.1-0.5-0.2-0.9c-0.1-0.2-0.4-0.3-0.7-0.5-0.6 0-1.3 0-1.8 0h-1.8zm8.6 0.9c0-1 0.2-2.2 0.8-3.2 0.3-0.6 0.9-1.4 1.8-1.8 0.8-0.5 1.8-0.8 2.9-0.6q2.4 0 3.9 1.3 1.5 1.5 1.5 4.3 0 2.7-1.6 4.2-1.4 1.5-3.8 1.5-2.5 0-3.9-1.5c-1.1-1-1.6-2.4-1.6-4.2zm2.3-0.1c0 1.3 0.3 2.2 0.9 3 0.6 0.6 1.3 0.9 2.2 0.9q1.4 0 2.2-0.9 0.9-1.1 0.9-3 0-1.8-0.9-2.7c-0.5-0.7-1.2-1-2.1-1-0.9 0-1.7 0.3-2.3 1-0.6 0.5-0.8 1.5-0.9 2.7zm15.6 1.5v-1.8h4.9v4.3q-0.9 0.8-2.1 1.2-1.3 0.5-2.8 0.5c-1.1 0-2.1-0.2-2.9-0.6q-1.4-0.9-2-2c-0.5-1-0.8-2.1-0.8-3.1 0-0.9 0.3-2.1 0.8-3 0.4-0.7 1-1.5 2-1.9 0.7-0.5 1.8-0.8 2.9-0.8 1.2 0 2.4 0.3 3.2 0.9q1.2 0.8 1.5 2.4l-2.3 0.5c0-0.6-0.4-0.9-0.9-1.4-0.4-0.3-1-0.4-1.6-0.4q-1.5 0-2.3 0.9c-0.6 0.6-0.9 1.5-0.9 2.8 0 1.2 0.3 2.2 1 3q0.8 0.9 2.2 0.9c0.5 0 1-0.2 1.4-0.3q0.7-0.3 1.3-0.8v-1.3zm6.9 4v-11h4.8c1.2 0 2 0.1 2.6 0.3 0.5 0.3 1 0.7 1.2 1q0.5 0.9 0.5 1.8c0.1 0.8-0.2 1.5-0.7 2.1-0.5 0.4-1.3 0.9-2.2 0.9q0.8 0.4 1.2 1 0.7 0.8 1.3 1.8l1.4 2.1h-2.7l-1.7-2.4c-0.3-0.6-0.7-1-1.1-1.6q-0.3-0.3-0.7-0.5c-0.3-0.1-0.8-0.1-1.2-0.1h-0.4v4.6zm2.3-6.3h1.7q1 0 1.9-0.1c0.3-0.1 0.6-0.3 0.7-0.4 0.2-0.3 0.3-0.6 0.2-0.9q0.1-0.5-0.2-0.9c-0.1-0.2-0.4-0.3-0.7-0.3-0.6-0.2-1.3-0.2-1.9-0.2h-1.7zm9 6.3v-10.9h8.3v1.8h-6v2.5h5.6v1.8h-5.6v3h6.3v1.8zm9.9-3.6l2.2-0.1c0.2 1.3 1 2 2.4 2 0.6 0 1.2-0.1 1.7-0.4 0.4-0.3 0.6-0.6 0.5-1.1 0-0.3 0-0.4-0.2-0.5q-0.2-0.3-0.6-0.5-1-0.3-2-0.6-1.3-0.3-2.2-0.7-0.7-0.5-1-1.1-0.4-0.7-0.4-1.5-0.1-0.9 0.5-1.6 0.4-0.6 1.4-1.1c0.6-0.3 1.4-0.4 2.2-0.3 1.2-0.1 2.4 0.2 3.1 0.8 0.7 0.6 1.1 1.5 1.2 2.5h-2.3q-0.2-0.7-0.7-1.2c-0.3-0.1-0.8-0.3-1.4-0.3-0.5 0-1 0.2-1.4 0.3-0.3 0.2-0.5 0.5-0.5 0.8q0 0.4 0.4 0.7 0.5 0.3 2.1 0.8c0.9 0.1 1.7 0.4 2.4 0.7 0.6 0.3 1 0.8 1.2 1.2q0.4 0.8 0.4 1.6c0 0.9-0.3 1.7-1.1 2.4q-1.1 0.9-3.5 1.1c-2.6 0-4.1-1.4-4.4-3.9zm10.4 0l2.2-0.1c0.3 1.3 1 2 2.5 2 0.6 0 1.2-0.1 1.6-0.4q0.7-0.5 0.6-1.1c0-0.3-0.1-0.4-0.2-0.5-0.1-0.3-0.4-0.5-0.7-0.5q-0.9-0.3-2-0.6-1.2-0.3-2.1-0.7-0.8-0.5-1.1-1.1-0.4-0.7-0.4-1.5 0-0.9 0.5-1.6c0.3-0.5 0.8-0.8 1.4-1.1 0.7-0.3 1.5-0.4 2.2-0.3 1.3-0.1 2.4 0.2 3.1 0.8q1.1 0.9 1.2 2.5h-2.2c-0.1-0.6-0.3-0.9-0.6-1.2q-0.6-0.3-1.5-0.3-0.7 0-1.4 0.3-0.5 0.3-0.5 0.8 0 0.4 0.4 0.7c0.3 0.2 1 0.5 2.1 0.6 0.9 0.3 1.8 0.6 2.5 0.9 0.6 0.3 0.9 0.8 1.1 1.2q0.5 0.8 0.4 1.6c0.1 0.8-0.3 1.7-1 2.4q-1.2 0.9-3.5 0.9-4.1 0.2-4.6-3.7zm17.9 3.6v-9.1h-3.3v-1.8h8.9v1.8h-3.3v9.1zm7 0v-10.9h2.3v4.3h4.4v-4.3h2.3v10.9h-2.3v-4.8h-4.4v4.8zm11.3 0v-10.9h4.7q1.9 0 2.6 0.3c0.6 0.1 1.1 0.6 1.3 1 0.4 0.5 0.5 1.1 0.5 1.7 0.1 0.7-0.2 1.5-0.7 2.1-0.5 0.6-1.3 0.9-2.2 1 0.5 0.3 0.9 0.6 1.1 0.9q0.9 0.7 1.4 1.8l1.4 2.1h-2.8l-1.6-2.4c-0.3-0.5-0.8-1.1-1.2-1.6q-0.2-0.3-0.6-0.5-0.6-0.1-1.2 0h-0.5v4.5zm2.2-6.3h1.7q1 0 2-0.1 0.5-0.2 0.7-0.5c0.2-0.3 0.3-0.6 0.2-0.9q0-0.4-0.3-0.7-0.2-0.3-0.7-0.5c-0.6-0.1-1.2-0.1-1.8-0.1h-1.8zm8.6 0.9q-0.1-1.7 0.7-3.2c0.3-0.7 1-1.3 1.8-1.9 0.8-0.4 1.9-0.6 2.9-0.6 1.6 0 2.9 0.5 3.9 1.5q1.5 1.5 1.5 4.2c0 1.8-0.5 3.3-1.6 4.3q-1.4 1.3-3.8 1.3-2.4 0-3.8-1.3-1.6-1.6-1.6-4.3zm2.3 0q0 1.8 0.9 2.8c0.6 0.6 1.3 0.9 2.2 0.9 0.9 0 1.6-0.3 2.2-0.9 0.6-0.6 0.9-1.6 0.9-2.8q0-2-0.8-2.9c-0.6-0.6-1.4-0.9-2.3-0.9-0.9 0-1.6 0.3-2.2 0.9-0.7 0.6-0.9 1.5-0.9 2.9zm10.3-5.5h2.2v5.9q0.1 1.4 0.1 1.8c0 0.5 0.3 0.8 0.7 1.1q0.6 0.4 1.5 0.4 0.8 0 1.3-0.3c0.3-0.1 0.6-0.4 0.7-0.7 0.2-0.8 0.2-1.5 0.2-2.1v-6.1h2.2v5.8q0.1 1.5-0.3 3.1c-0.1 0.6-0.6 1.2-1.3 1.6-0.7 0.5-1.7 0.6-2.7 0.6-1 0-2-0.1-2.7-0.4-0.7-0.5-1.2-0.9-1.5-1.5q-0.4-0.9-0.4-3.4zm16.6 7v-2h4.8v4.5c-0.5 0.5-1.2 0.9-2 1.2q-1.3 0.5-2.8 0.5c-1.1 0-2.1-0.2-2.9-0.6q-1.4-0.9-2-2c-0.5-1-0.8-2.1-0.7-3.1-0.1-1.1 0.2-2.1 0.7-3.1 0.4-0.6 1.1-1.4 2-2 0.8-0.3 1.8-0.6 2.9-0.6 1.2 0 2.4 0.3 3.2 0.8q1.2 0.9 1.6 2.5l-2.2 0.3q-0.2-0.6-1-1.2c-0.4-0.3-0.9-0.4-1.6-0.4-1 0-1.7 0.3-2.3 0.9q-0.9 0.9-0.9 2.6 0 2 0.9 3 0.9 0.9 2.3 0.9c0.5 0 1 0 1.4-0.1 0.5-0.3 0.9-0.5 1.2-0.8v-1.3zm7 4v-11h2.2v4.3h4.5v-4.3h2.3v11h-2.3v-4.8h-4.5v4.8zm15.7 0v-11h2.3v4.9l4.5-4.9h3.1l-4.2 4.3 4.5 6.7h-3l-3.1-5.2-1.8 1.9v3.3zm11.3 0v-11h2.2l4.6 7.3v-7.3h2.1v11h-2.3l-4.5-7.1v7.1zm10.8-5.4c0-1.2 0.2-2.2 0.8-3.2 0.3-0.8 0.9-1.4 1.8-2 0.8-0.3 1.8-0.6 2.9-0.6 1.6 0 2.9 0.5 3.9 1.5 1 1.1 1.5 2.4 1.5 4.2q0 2.8-1.6 4.3-1.4 1.4-3.8 1.4-2.5 0-3.8-1.4c-1.1-1-1.6-2.4-1.7-4.2zm2.4-0.1q0 1.9 0.9 2.8 0.9 0.9 2.2 0.9c0.9 0 1.6-0.3 2.2-0.9q0.9-0.9 0.9-2.8c0-1.3-0.3-2.2-0.9-2.8-0.5-0.6-1.3-0.9-2.2-0.9-1 0-1.7 0.3-2.3 0.9-0.6 0.6-0.8 1.6-0.8 2.8zm11.9 5.5l-2.7-11h2.3l1.7 7.6 2.1-7.6h2.6l2 7.7 1.7-7.7h2.3l-2.8 11h-2.3l-2.3-8.2-2.2 8.2zm13.3 0v-10.9h2.2v9h5.7v1.9zm9.5 0v-11h8.3v1.9h-6.1v2.4h5.7v1.8h-5.7v3h6.4v1.9zm10.4-11h4.1c0.8 0 1.6 0.1 2.4 0.3 0.6 0.3 1.1 0.6 1.5 1q0.7 0.8 1 1.7c0.3 0.9 0.5 1.7 0.4 2.6q0 1.2-0.4 2.6-0.3 0.7-1 1.6-0.5 0.6-1.5 0.9c-0.6 0.2-1.4 0.3-2.2 0.3h-4.2v-11zm2.2 1.9v7.2h1.7q0.8 0.1 1.5-0.2 0.6-0.2 0.9-0.4 0.3-0.5 0.5-1.1 0.4-1.9 0-3.8-0.2-0.6-0.6-1.1c-0.3-0.3-0.7-0.4-1.1-0.6-0.6 0-1.2 0-1.9 0zm14.3 5.1v-2h4.9v4.5q-0.8 0.8-2.1 1.2-1.2 0.5-2.7 0.5c-1.1 0-2.1-0.3-2.9-0.6q-1.5-0.9-2-2c-0.5-1-0.8-2.1-0.7-3.1-0.1-1.1 0.2-2.1 0.7-3.1 0.4-0.6 1-1.4 2-2 0.7-0.3 1.8-0.6 2.9-0.6 1.2 0 2.4 0.3 3.2 0.8 0.8 0.6 1.3 1.3 1.6 2.5l-2.3 0.3c0-0.4-0.4-0.9-0.9-1.2-0.4-0.3-1-0.4-1.6-0.4q-1.5 0-2.4 0.9-0.9 0.9-0.9 2.6c0 1.4 0.4 2.4 1 3 0.5 0.6 1.3 0.9 2.3 0.9 0.5 0 1 0 1.3-0.1q0.8-0.3 1.3-0.8v-1.3zm7 4v-11h8.3v1.9h-6.1v2.4h5.7v1.8h-5.7v3h6.3v1.9z"/></svg>