<svg xmlns="http://www.w3.org/2000/svg" class="navslider-logo" width="203" height="41" viewBox="0 0 203 41" fill="none">
                  <path fill-rule="evenodd" clip-rule="evenodd" d="M198.621 23.1067C198.661 21.049 197.705 17.8529 193.762 17.8529C190.218 17.8529 188.666 20.8649 188.387 23.1067H198.621ZM188.346 25.422C188.426 29.7939 191.456 31.5942 194.958 31.5942C197.465 31.5942 198.98 31.1909 200.295 30.6764L200.892 32.9911C199.656 33.5044 197.548 34.0935 194.481 34.0935C188.548 34.0935 184.999 30.4924 184.999 25.1269C184.999 19.7637 188.426 15.5376 194.042 15.5376C200.335 15.5376 202.008 20.6456 202.008 23.9151C202.008 24.5777 201.93 25.091 201.886 25.422H188.346ZM173.769 21.4899C173.769 19.3963 173.729 17.596 173.607 15.9427H176.674L176.796 19.4321H176.954C177.831 17.0451 179.943 15.5376 182.291 15.5376C182.69 15.5376 182.966 15.5735 183.286 15.6476V18.6972C182.927 18.6237 182.571 18.5878 182.094 18.5878C179.623 18.5878 177.87 20.3146 177.392 22.7399C177.313 23.1808 177.231 23.6958 177.231 24.2467V33.7261H173.769V21.4899ZM164.445 33.7255H167.95V15.9427H164.445V33.7255ZM168.349 10.9447C168.388 12.047 167.512 12.9289 166.118 12.9289C164.883 12.9289 164.007 12.047 164.007 10.9447C164.007 9.80698 164.926 8.92449 166.197 8.92449C167.512 8.92449 168.349 9.80698 168.349 10.9447ZM145.248 26.4868C145.248 26.9654 145.331 27.4063 145.41 27.8097C146.045 30.0514 148.154 31.5942 150.664 31.5942C154.371 31.5942 156.519 28.8015 156.519 24.7236C156.519 21.1589 154.489 18.1104 150.783 18.1104C148.398 18.1104 146.164 19.6896 145.485 22.1149C145.367 22.5182 145.248 22.9974 145.248 23.4377V26.4868ZM141.783 21.7474C141.783 19.4697 141.704 17.6319 141.625 15.9427H144.77L144.929 18.9912H145.011C146.445 16.8252 148.714 15.5376 151.86 15.5376C156.519 15.5376 160.024 19.1764 160.024 24.5777C160.024 30.9692 155.804 34.1294 151.264 34.1294C148.714 34.1294 146.484 33.1005 145.331 31.3367H145.248V41H141.783V21.7474ZM121.788 29.8316C123.344 30.7135 125.61 31.4484 128.002 31.4484C131.546 31.4484 133.616 29.7199 133.616 27.2206C133.616 24.9076 132.182 23.5841 128.558 22.2977C124.177 20.8649 121.469 18.7713 121.469 15.2801C121.469 11.4238 124.935 8.55703 130.153 8.55703C132.901 8.55703 134.891 9.14439 136.086 9.76936L135.131 12.378C134.255 11.9371 132.462 11.2022 130.035 11.2022C126.368 11.2022 124.975 13.2223 124.975 14.9127C124.975 17.2285 126.609 18.3679 130.315 19.6896C134.851 21.3065 137.164 23.3266 137.164 26.9654C137.164 30.7858 134.097 34.0935 127.761 34.0935C125.172 34.0935 122.349 33.3945 120.912 32.5126L121.788 29.8316ZM103.465 26.341C103.465 26.7084 103.504 27.0747 103.583 27.4063C104.104 29.2072 105.817 30.5665 107.925 30.5665C110.993 30.5665 112.864 28.2888 112.864 24.6871C112.864 21.5275 111.234 18.9553 107.965 18.9553C105.975 18.9553 104.187 20.2764 103.627 22.263C103.544 22.5917 103.465 22.9974 103.465 23.4377V26.341ZM98.4086 33.7261C98.4877 32.5126 98.5674 30.5283 98.5674 28.6916V7.63867H103.465V18.2944H103.544C104.74 16.5659 106.851 15.4277 109.757 15.4277C114.498 15.4277 117.884 19.0652 117.845 24.5042C117.845 30.9334 113.424 34.1294 109.042 34.1294C106.532 34.1294 104.301 33.2469 102.908 31.0439H102.83L102.589 33.7261H98.4086ZM93.269 28.3606C93.269 30.4924 93.3481 32.2574 93.4277 33.7261H89.1267L88.8878 31.0051H88.8087C87.9718 32.2932 86.0597 34.1294 82.5956 34.1294C79.0506 34.1294 75.8237 32.1833 75.8237 26.341V15.831H80.7227V25.5684C80.7227 28.544 81.7587 30.4548 84.3484 30.4548C86.298 30.4548 87.573 29.169 88.0901 28.0313C88.2506 27.6262 88.3706 27.1488 88.3706 26.6338V15.831H93.269V28.3606ZM54.2338 8.96095V18.8812H65.586V8.96095H70.485V33.7261H65.586V22.8133H54.2338V33.7261H49.3348V8.96095H54.2338Z" fill="#fff"/>
                  <path fill-rule="evenodd" clip-rule="evenodd" d="M20.1955 12.2952C22.9791 12.2952 25.2451 10.0233 25.2451 7.23232V5.06285C25.2451 2.27015 22.9791 0 20.1955 0H18.03C15.2463 0 12.9804 2.27015 12.9804 5.06285V7.23232C12.9804 10.0233 15.2463 12.2952 18.03 12.2952H20.1955ZM18.03 38.3606C15.2463 38.3606 12.9804 36.0881 12.9804 33.2977V31.1282C12.9804 27.9392 10.3941 25.3473 7.21395 25.3473H5.04959C2.26652 25.3473 0 23.0748 0 20.2821V18.1126C0 15.3217 2.26652 13.0498 5.04959 13.0498H7.21395C9.99876 13.0498 12.2635 15.3217 12.2635 18.1126V20.2821C12.2635 23.4706 14.8515 26.0654 18.03 26.0654H20.1955C23.3739 26.0654 25.9596 23.4706 25.9596 20.2821V18.1126C25.9596 15.3217 28.2261 13.0498 31.0115 13.0498H33.1747C35.9584 13.0498 38.2249 15.3217 38.2249 18.1126V20.2821C38.2249 23.0748 35.9584 25.3473 33.1747 25.3473H31.0115C27.8308 25.3473 25.2451 27.9392 25.2451 31.1282V33.2977C25.2451 36.0881 22.9791 38.3606 20.1955 38.3606H18.03Z" fill="#1B9BCD" class="hubspire-logo-rep"/>
                </svg>