<svg version="1.2" xmlns="http://www.w3.org/2000/svg" viewBox="0 -29 203 70" width="203" height="70"><style>.a{fill:#ffd100}</style><path fill-rule="evenodd" class="a" d="m100.5 24.6q-1-0.6-2.2-1-1.2-0.4-2.6-0.6-1.3-0.3-2.7-0.5-1.4-0.1-2.9-0.1c-2.3 0-4.6 0.2-6.7 0.7-2.2 0.4-4.1 1-5.8 1.9-1.7 0.8-3 1.7-3.9 2.8-0.9 1.1-1.4 2.3-1.5 3.4v0.6c-0.1 1.2 0.3 2.4 1.1 3.5 0.8 1.1 2 2.1 3.6 3 1.5 0.8 3.4 1.5 5.5 2 2.1 0.5 4.4 0.8 6.7 0.8h1.1q1.4 0.1 2.9-0.1 1.4-0.1 2.7-0.4 1.3-0.2 2.5-0.6 1.2-0.5 2.2-1v1.9h8.1v-18.2h-8.1zm-10 12.7c-4.5 0.2-8.7-1.1-10.6-3.2-1.8-2.1-1-4.5 2.2-6.1 3.2-1.7 8-2.1 12.1-1.2 4.1 1 6.6 3.1 6.3 5.4q-0.1 1-0.9 1.9-0.9 0.9-2.2 1.6-1.4 0.7-3.2 1.1-1.8 0.4-3.7 0.5zm91.5-4.5c0 2.7-2.8 4.6-7.7 4.6-4.9 0-7.3-1.3-7.3-4.6v-10.1h-8.2v11c0 4.9 4.7 7.5 13.5 7.5q1.3 0 2.7-0.1 1.3-0.2 2.6-0.5 1.3-0.3 2.3-0.7 1.1-0.4 2-1v2.1h8v-18.3h-7.9zm-33.8-10.1q-1.7-0.2-3.5-0.2-1.7 0-3.4 0.3-1.7 0.2-3.2 0.7-1.5 0.5-2.7 1.1v-1.9h-8v18.3h8v-9.9c0-3.6 5.5-5.3 12.8-4.6z"/><path fill-rule="evenodd" class="a" d="m151.1 41.2c-1.9 0-3.5-0.8-3.5-1.8 0-1 1.6-1.8 3.5-1.8 2 0 3.5 0.8 3.5 1.8 0 1-1.5 1.8-3.5 1.8z"/><path fill-rule="evenodd" class="a" d="m199.5 41.2c-1.9 0-3.5-0.8-3.5-1.8 0-1 1.6-1.8 3.5-1.8 1.9 0 3.5 0.8 3.5 1.8 0 1-1.6 1.8-3.5 1.8z"/><path fill-rule="evenodd" class="a" d="m117.9 41.2c-1.9 0-3.5-0.8-3.5-1.8 0-1 1.6-1.8 3.5-1.8 2 0 3.6 0.8 3.6 1.8 0 1-1.6 1.8-3.6 1.8z"/><path fill-rule="evenodd" class="a" d="m78.1-14.6h30.4v-1.1q-3.3-0.4-6.6-0.8-3.3-0.4-6.6-0.9-3.2-0.5-6.4-1.1-3.2-0.6-6.4-1.2-1.3-0.3-2.7-0.4-1.4-0.1-2.9 0-1.4 0.1-2.7 0.3-1.4 0.2-2.6 0.6-2.1 0.6-4.4 1-2.3 0.4-4.7 0.6-2.3 0.2-4.7 0.1-2.4 0-4.8-0.3v1.2q1.7 0.2 3.5 0.3 1.7 0 3.5 0 1.7-0.1 3.5-0.2 1.7-0.2 3.4-0.4-0.5 0.4-0.8 0.8-0.4 0.4-0.6 0.8-0.2 0.5-0.3 0.9-0.2 0.4-0.2 0.9c0 2 1.5 3.1 4.2 5.4l8.6 7.7q0.7 0.6 0.7 1.4 0 0.7-0.7 1.4c-0.5 0.4-1.2 0.8-2 1-0.9 0.3-1.8 0.4-2.8 0.4-5.6 0-9.2-5.4-22.2-5.4q-2.2 0.1-4.4 0.3-2.1 0.2-4.2 0.7-2 0.4-3.8 1.1-1.8 0.6-3.3 1.5l-35.1 17.8c2.3 0.2 12.3 0.9 17.2 1l-6.6 7.2q5.5-0.5 11-1.2 5.4-0.7 10.7-1.6 5.3-0.9 10.5-2 5.2-1.1 10.2-2.4v20.2h2.4v-20.8q2.9-0.8 5.8-1.6 2.4-0.7 4.4-1.7 2-1 3.4-2.2 1.5-1.2 2.2-2.6 0.8-1.4 0.8-2.8 0.3 0 0.6 0 0.2 0 0.5 0 0.3 0 0.6 0 0.2 0 0.5 0c2.8-0.1 5.4-0.5 7.7-1.3 2.4-0.8 4.3-1.8 5.5-3.1 1.3-1.2 2-2.6 1.9-4 0-1.4-0.8-2.8-2.1-4l-11.1-9.7q-0.1-0.1-0.1-0.2-0.1-0.1-0.1-0.1-0.1-0.1-0.1-0.2 0-0.1 0-0.1 0-0.3 0.1-0.5 0.2-0.2 0.5-0.3 0.3-0.2 0.7-0.3 0.4-0.1 0.8-0.1h0.2zm-11 18.9q0.4 0.5 0.9 0.9 0.4 0.4 0.7 0.9 0.3 0.4 0.6 0.9 0.2 0.5 0.3 0.9c-4.1-0.6-6.1-1.9-8.6-2.9q0.6-0.1 1.2-0.3 0.7-0.1 1.3-0.2 0.7-0.1 1.3-0.1 0.7-0.1 1.4-0.1zm-16.1-4.6q2.1 0 4.1 0.2 2 0.3 3.8 0.7 1.9 0.4 3.5 1.1 1.7 0.6 3 1.4-0.9 0.1-1.7 0.1-0.8 0.1-1.7 0.3-0.8 0.1-1.5 0.3-0.8 0.2-1.5 0.4-2.1-0.9-4.6-1.5-2.5-0.6-5.2-0.8-2.7-0.3-5.5-0.2-2.7 0.1-5.3 0.5 1.2-0.6 2.7-1.1 1.5-0.4 3.1-0.7 1.6-0.4 3.3-0.5 1.7-0.2 3.5-0.2zm-46 19.3l25.6-12.8-12.4 13.5c-4.3-0.2-9-0.4-13.2-0.7zm9.7 7.4l5-5.5c2.6 0.1 5.1 0.1 7.8 0.1q2.9 0 5.8-0.1 2.9 0 5.7-0.1 2.9-0.1 5.8-0.3 2.9-0.2 5.7-0.4-4.3 1.1-8.7 2-4.4 0.9-8.9 1.7-4.5 0.8-9 1.4-4.6 0.7-9.3 1.2zm38.4-17v9.4q-3.2 0.2-6.4 0.4-3.1 0.2-6.3 0.4-3.2 0.1-6.5 0.2-3.2 0.1-6.4 0.1c-2.2 0-4.5 0-6.8-0.1l14-15.4q1.2-0.4 2.4-0.7 1.3-0.2 2.6-0.4 1.3-0.2 2.6-0.3 1.4-0.1 2.7-0.1 1.7 0 3.3 0.2 1.6 0.1 3.1 0.4 1.5 0.2 3 0.6 1.4 0.4 2.7 0.9-0.9 0.5-1.6 1-0.7 0.5-1.3 1-0.5 0.6-0.8 1.2-0.3 0.6-0.3 1.2zm2.3 9v-8.6q0-0.6 0.2-1.1 0.3-0.6 0.7-1.1 0.5-0.5 1.1-1 0.6-0.4 1.5-0.8c3.4 1.3 5.5 2.8 10.7 3.4q0 1.6-1 3.1-1.1 1.5-3 2.8c-1.3 0.8-2.8 1.5-4.5 2.1-1.8 0.6-3.7 1-5.7 1.2zm29.8-20.9c1.1 1.1 1.8 2.2 1.8 3.4 0 1.2-0.5 2.4-1.6 3.5-1.1 1.1-2.8 2-4.7 2.6-2 0.7-4.3 1.1-6.6 1.2q-0.3 0-0.6 0-0.3 0-0.5 0-0.3 0-0.6 0-0.2 0-0.5 0-0.1-0.5-0.2-0.9-0.2-0.4-0.4-0.9-0.3-0.4-0.6-0.8-0.3-0.4-0.7-0.8c1.6 0.3 3.2 0.4 4.8 0.2 1.6-0.2 3.1-0.6 4.2-1.3 1.1-0.6 1.7-1.4 1.9-2.2 0.2-0.8-0.2-1.7-1-2.4l-8.6-7.6q-0.7-0.7-1-1.4-0.2-0.8 0.1-1.5 0.3-0.8 1.1-1.4 0.9-0.6 2.1-1.1-0.1 0.2-0.1 0.4 0 0.2 0.1 0.5 0.1 0.2 0.2 0.4 0.1 0.2 0.4 0.3zm-17.1-9.1c-0.6-0.8-0.8-1.7-0.6-2.6 0.3-0.8 0.9-1.7 1.9-2.4 1-0.7 2.3-1.3 3.8-1.7 1.6-0.4 3.3-0.6 5-0.6q0.4 0 0.9 0.1 0.4 0 0.9 0 0.4 0.1 0.9 0.1 0.4 0.1 0.8 0.2c6 1 11 2 16.1 2.7h-19.7q-1.8 0-3.4 0.3-1.7 0.3-3.1 0.9-1.4 0.6-2.3 1.4-0.9 0.7-1.2 1.6zm10-10q0.9 0 1.7 0.1 0.8 0.1 1.6 0.2 0.9 0.1 1.6 0.3 0.8 0.2 1.5 0.5l3.7-3.2-2-0.6-2.5 2.1q-0.5-0.1-1-0.2-0.6-0.1-1.1-0.2-0.5 0-1.1-0.1-0.5 0-1.1-0.1v-0.8c1.6-0.3 2.5-1.1 2.2-1.9-0.3-0.9-1.7-1.5-3.4-1.5-1.6 0-3.1 0.6-3.4 1.5-0.2 0.8 0.7 1.6 2.3 1.9v0.9q-0.6 0-1.1 0-0.6 0.1-1.1 0.2-0.6 0-1.1 0.1-0.5 0.1-1 0.2l-2.5-2.1-2 0.6 3.6 3.1q0.7-0.2 1.4-0.4 0.8-0.2 1.6-0.3 0.7-0.1 1.6-0.2 0.8-0.1 1.6-0.1zm-1.2-3.6c0-0.3 0.3-0.5 0.8-0.6 0.4-0.1 0.9 0 1.2 0.1 0.4 0.2 0.5 0.5 0.3 0.7-0.2 0.2-0.6 0.4-1.1 0.4q-0.2 0-0.4-0.1-0.3 0-0.4-0.1-0.2-0.1-0.3-0.2-0.1-0.1-0.1-0.2z"/></svg>