<svg id="Layer_1" data-name="Layer 1" xmlns="http://www.w3.org/2000/svg" width="42.51mm" height="28.22mm" viewBox="0 0 120.5 80"><defs><style>.cls-1{fill:#ffd100}</style></defs><path class="cls-1" d="M59.43 60a8.05 8.05 0 0 0-6-2.42A10.24 10.24 0 0 0 43 67.63v.65a10.24 10.24 0 0 0 9.81 10.65h.66a8 8 0 0 0 6-2.42v2.19h4.67V57.87h-4.71Zm-5.8 14.52a6.27 6.27 0 1 1 5.82-5.82 6.27 6.27 0 0 1-5.82 5.82ZM106.86 69.4c0 3-1.63 5.25-4.47 5.25s-4.26-1.52-4.26-5.25V57.87h-4.75v12.51c0 5.56 2.71 8.6 7.81 8.6a7 7 0 0 0 5.6-2.63v2.37h4.67V57.87h-4.6ZM87.18 57.78A7.81 7.81 0 0 0 79.77 60v-2.13h-4.66v20.87h4.67V67.48c0-4.2 3.2-6.09 7.41-5.28Z"/><ellipse class="cls-1" cx="88.9" cy="76.93" rx="2.04" ry="2.07"/><ellipse class="cls-1" cx="117.03" cy="76.93" rx="2.04" ry="2.07"/><ellipse class="cls-1" cx="69.6" cy="76.93" rx="2.04" ry="2.07"/><path class="cls-1" d="M46.43 15.25h17.68V14A88.81 88.81 0 0 1 49 9.42a7.61 7.61 0 0 0-6.38.56 14.83 14.83 0 0 1-10.79 1.63V13a16.3 16.3 0 0 0 8.08-.37 7.49 7.49 0 0 0-1.08 3.9c0 2.31.84 3.49 2.42 6.21l5 8.72a3.21 3.21 0 0 1-2.79 4.81c-3.24 0-5.33-6.09-12.91-6.09a12.5 12.5 0 0 0-9.13 4L1 54.57c1.31.24 7.15 1 10 1.16L7.16 63.9a91 91 0 0 0 24.69-8.17v23h1.35V55q1.72-.9 3.39-1.86a12.28 12.28 0 0 0 6.29-10.55 9.13 9.13 0 0 0 1.29 0 9.48 9.48 0 0 0 7.52-14.2l-6.43-11.11a1.34 1.34 0 0 1-.18-.67 1.29 1.29 0 0 1 1.23-1.35h.12ZM40 36.9a11 11 0 0 1 1.5 4.1c-2.39-.67-3.55-2.22-5-3.32a6.23 6.23 0 0 1 3-.81Zm-9.36-5.27A10.88 10.88 0 0 1 39 35.54a7.61 7.61 0 0 0-3.71 1.23 12.77 12.77 0 0 0-12-2.28 10.88 10.88 0 0 1 7.33-2.86Zm-26.71 22L18.79 39l-7.21 15.46c-2.5-.19-5.21-.46-7.67-.82Zm5.62 8.43 2.91-6.23c1.52.08 3 .11 4.57.11a90.7 90.7 0 0 0 13.36-1 90.78 90.78 0 0 1-20.87 7.13Zm22.32-19.33v10.65A89.56 89.56 0 0 1 17 54.63c-1.32 0-2.65 0-4-.09l8.19-17.61a11.54 11.54 0 0 1 6-1.64 11.39 11.39 0 0 1 7 2.4 7.32 7.32 0 0 0-2.32 5.04ZM33.22 53v-9.86a6.24 6.24 0 0 1 2-4.57c2 1.52 3.2 3.24 6.27 3.93A10.9 10.9 0 0 1 33.21 53Zm17.31-23.89a8.17 8.17 0 0 1-6.47 12.18 7.72 7.72 0 0 1-1.25 0 12.06 12.06 0 0 0-1.08-3.91 4.57 4.57 0 0 0 5.75-6.47l-5-8.72a4.57 4.57 0 0 1 1.31-6.09 2.69 2.69 0 0 0 .33 1.84Zm-9.94-10.42a6.19 6.19 0 0 1 5.88-8.3 6.09 6.09 0 0 1 2.07.37c3.46 1.24 6.39 2.3 9.37 3.14H46.43a6 6 0 0 0-5.84 4.81ZM46.43 7.28a6.42 6.42 0 0 1 3.7 1.17l2.15-3.64-1.17-.68-1.43 2.46a7.61 7.61 0 0 0-2.5-.67V5a2 2 0 1 0-1.35 0v.93a7.61 7.61 0 0 0-2.5.67L41.9 4.13l-1.17.68 2.09 3.62a6.42 6.42 0 0 1 3.61-1.15Zm-.68-4.19a.68.68 0 1 1 .68.68.68.68 0 0 1-.68-.68Z"/></svg>
