<svg version="1.2" xmlns="http://www.w3.org/2000/svg" viewBox="0 0 644 32" width="644" height="32">
	<title>title-bar - Copy-svg</title>
	<defs>
		<clipPath clipPathUnits="userSpaceOnUse" id="cp1">
			<path d="m0 0h644v31.11h-644z"/>
		</clipPath>
		<clipPath clipPathUnits="userSpaceOnUse" id="cp2">
			<path d="m556.89 5.44h74.67v18.67h-74.67z"/>
		</clipPath>
		<clipPath clipPathUnits="userSpaceOnUse" id="cp3">
			<path d="m74.67 5.44h76.22v18.67h-76.22z"/>
		</clipPath>
		<clipPath clipPathUnits="userSpaceOnUse" id="cp4">
			<path d="m15.56 10.89h40.44v9.33h-40.44z"/>
		</clipPath>
		<clipPath clipPathUnits="userSpaceOnUse" id="cp5">
			<path d="m234.11 4.67h175.78v21.77h-175.78z"/>
		</clipPath>
		<clipPath clipPathUnits="userSpaceOnUse" id="cp6">
			<path d="m395.5 10.11h10.11v10.89h-10.11z"/>
		</clipPath>
	</defs>
	<style>
		tspan { white-space:pre } 
		.s0 { fill: #25334d } 
		.s1 { fill: #b7b7b7 } 
		.s2 { fill: #5a5a5a } 
		.s3 { fill: #ed6a5e } 
		.s4 { opacity: .1;fill: none;stroke: #000000;stroke-width: .8 } 
		.s5 { fill: #f4bd50 } 
		.s6 { fill: #61c454 } 
		.s7 { fill: #3c5175 } 
		.t8 { font-size: 10px;fill: #ffffff;font-weight: 400;font-family: "DejaVuSans", "DejaVu Sans" } 
		.s9 { fill: #e3e3e3 } 
		.s10 { fill: #ffffff } 
	</style>
	<g id="Clip-Path" clip-path="url(#cp1)">
		<g>
			<path class="s0" d="m0 12.4c0-4.3 0-6.5 0.8-8.2 0.8-1.4 2-2.6 3.4-3.4 1.7-0.8 3.9-0.8 8.2-0.8h619.2c4.3 0 6.5 0 8.2 0.8 1.4 0.8 2.6 2 3.4 3.4 0.8 1.7 0.8 3.9 0.8 8.2v18.7h-644z"/>
			<g id="Clip-Path" clip-path="url(#cp2)">
				<g>
					<path class="s1" d="m566.2 16.6c0.4 0 0.6-0.2 0.6-0.6v-6.5-0.9l0.4 0.5 0.9 0.9q0.1 0.2 0.4 0.2c0.3 0 0.5-0.2 0.5-0.5q0-0.3-0.2-0.4l-2.1-2.1q-0.2-0.2-0.5-0.2-0.2 0-0.4 0.2l-2.2 2.1q-0.2 0.1-0.2 0.4c0 0.3 0.3 0.5 0.6 0.5q0.2 0 0.4-0.2l0.9-0.9 0.4-0.5-0.1 0.9v6.5c0 0.4 0.3 0.6 0.6 0.6zm-3.7 5.2h7.4c1.4 0 2.2-0.7 2.2-2.1v-6.4c0-1.3-0.8-2.1-2.2-2.1h-1.7v1.3h1.7c0.5 0 0.9 0.3 0.9 0.9v6.2c0 0.6-0.4 0.9-0.9 0.9h-7.3q-0.9 0-0.9-0.9v-6.2q0-0.9 0.9-0.9h1.7v-1.3h-1.8c-1.4 0-2.1 0.7-2.1 2.1v6.4c0 1.4 0.7 2.1 2.1 2.1z"/>
					<path class="s1" d="m593.4 20.2c0.5 0 0.8-0.3 0.8-0.7v-4h4c0.4 0 0.7-0.3 0.7-0.7 0-0.4-0.3-0.8-0.7-0.8h-4v-4c0-0.3-0.3-0.7-0.8-0.7-0.4 0-0.7 0.4-0.7 0.7v4h-4c-0.3 0-0.7 0.4-0.7 0.8 0 0.4 0.4 0.7 0.7 0.7h4v4c0 0.4 0.3 0.7 0.7 0.7z"/>
					<path class="s1" d="m617.3 18.7h1.1v1c0 1.3 0.8 2.1 2.2 2.1h6.5c1.4 0 2.1-0.8 2.1-2.1v-6.6c0-1.4-0.7-2.1-2.1-2.1h-1.1v-1c0-1.4-0.7-2.1-2.1-2.1h-6.6c-1.4 0-2.1 0.7-2.1 2.1v6.6q0 2.1 2.1 2.1zm0.1-1.3c-0.6 0-0.9-0.3-0.9-0.9v-6.4c0-0.6 0.3-0.9 0.9-0.9h6.4c0.6 0 0.9 0.3 0.9 0.9v0.9h-4.1c-1.4 0-2.2 0.7-2.2 2.1v4.3zm3.3 3.1q-0.9 0-1-0.9v-6.4q0.1-0.9 1-0.9h6.3c0.6 0 1 0.3 1 0.9v6.4c0 0.6-0.4 0.9-1 0.9z"/>
				</g>
			</g>
			<g id="Clip-Path" clip-path="url(#cp3)">
				<g>
					<path class="s1" d="m78.3 21.4h11.1c1.4 0 2.1-0.7 2.1-2.1v-7.9c0-1.3-0.7-2.1-2.1-2.1h-11.1c-1.3 0-2.1 0.8-2.1 2.1v7.9c0 1.4 0.8 2.1 2.1 2.1zm0.1-1.3c-0.6 0-0.9-0.3-0.9-0.9v-7.6c0-0.7 0.3-1 0.9-1h3v9.5zm10.9-9.5c0.5 0 0.9 0.3 0.9 1v7.6c0 0.6-0.4 0.9-0.9 0.9h-6.8v-9.5zm-9.2 2.4c0.3 0 0.5-0.2 0.5-0.4 0-0.3-0.2-0.5-0.5-0.5h-1.3c-0.2 0-0.4 0.2-0.4 0.5 0 0.2 0.2 0.4 0.4 0.4zm0 1.7c0.2 0 0.4-0.2 0.4-0.4 0-0.2-0.2-0.4-0.4-0.4h-1.3c-0.2 0-0.4 0.2-0.4 0.4 0 0.2 0.2 0.4 0.4 0.4zm0 1.7c0.2 0 0.4-0.1 0.4-0.4 0-0.2-0.2-0.4-0.4-0.4h-1.3c-0.3 0-0.5 0.2-0.5 0.4 0 0.3 0.2 0.4 0.5 0.4z"/>
					<path class="s1" d="m116.2 20.3l-4.7-4.6q-0.3-0.3-0.3-0.6 0-0.3 0.3-0.6l4.7-4.6q0.2-0.2 0.5-0.2c0.4 0 0.7 0.3 0.7 0.7q0 0.3-0.2 0.6l-4.2 4.1 4.2 4.2q0.2 0.2 0.2 0.5c0 0.4-0.3 0.7-0.7 0.7q-0.3 0-0.5-0.2z"/>
					<path class="s2" d="m139.6 20.5q0.3 0 0.5-0.2l4.7-4.6q0.2-0.3 0.2-0.6 0-0.3-0.2-0.5l-4.7-4.7q-0.2-0.2-0.5-0.2c-0.5 0-0.8 0.3-0.8 0.7q0 0.3 0.3 0.6l4.2 4.1-4.2 4.2q-0.3 0.2-0.3 0.5c0 0.4 0.3 0.7 0.8 0.7z"/>
				</g>
			</g>
			<g id="Clip-Path" clip-path="url(#cp4)">
				<g>
					<path class="s3" d="m20.2 20.2c-2.6 0-4.6-2.1-4.6-4.6 0-2.6 2-4.7 4.6-4.7 2.6 0 4.7 2.1 4.7 4.7 0 2.5-2.1 4.6-4.7 4.6z"/>
					<path class="s4" d="m20.2 19.8c-2.3 0-4.3-1.9-4.3-4.2 0-2.4 2-4.3 4.3-4.3 2.4 0 4.3 1.9 4.3 4.3 0 2.3-1.9 4.2-4.3 4.2z"/>
					<path class="s5" d="m35.8 20.2c-2.6 0-4.7-2.1-4.7-4.6 0-2.6 2.1-4.7 4.7-4.7 2.6 0 4.6 2.1 4.6 4.7 0 2.5-2 4.6-4.6 4.6z"/>
					<path class="s4" d="m35.8 19.8c-2.4 0-4.3-1.9-4.3-4.2 0-2.4 1.9-4.3 4.3-4.3 2.3 0 4.3 1.9 4.3 4.3 0 2.3-2 4.2-4.3 4.2z"/>
					<path class="s6" d="m51.3 20.2c-2.5 0-4.6-2.1-4.6-4.6 0-2.6 2.1-4.7 4.6-4.7 2.6 0 4.7 2.1 4.7 4.7 0 2.5-2.1 4.6-4.7 4.6z"/>
					<path class="s4" d="m51.3 19.8c-2.3 0-4.2-1.9-4.2-4.2 0-2.4 1.9-4.3 4.2-4.3 2.4 0 4.3 1.9 4.3 4.3 0 2.3-1.9 4.2-4.3 4.2z"/>
				</g>
			</g>
			<path class="s1" d="m220.9 21.8c0.1 0 0.3-0.1 0.4-0.2 3.7-2 5-2.9 5-5.3v-4.9c0-0.8-0.3-1.1-0.9-1.3-0.7-0.3-3.1-1.2-3.8-1.4-0.2-0.1-0.5-0.1-0.7-0.1-0.2 0-0.5 0-0.7 0.1-0.7 0.2-3.1 1.1-3.8 1.4-0.7 0.2-1 0.5-1 1.3v4.9c0 2.4 1.3 3.3 5 5.3 0.2 0.1 0.4 0.2 0.5 0.2zm0.3-11.9c0.9 0.3 2.7 1 3.7 1.3 0.2 0.1 0.2 0.2 0.2 0.4v4.5c0 1.9-0.9 2.4-3.8 4.2-0.2 0.1-0.3 0.1-0.4 0.1v-10.6q0.1 0 0.3 0.1z"/>
			<g id="Clip-Path" clip-path="url(#cp5)">
				<g>
					<path class="s7" d="m234.1 12.1c0-2.6 0-3.9 0.5-4.9 0.5-0.9 1.2-1.6 2.1-2 1-0.5 2.3-0.5 4.9-0.5h160.8c2.6 0 3.9 0 4.9 0.5 0.9 0.4 1.6 1.1 2.1 2 0.5 1 0.5 2.3 0.5 4.9v6.9c0 2.6 0 3.9-0.5 4.9-0.5 0.9-1.2 1.6-2.1 2-1 0.5-2.3 0.5-4.9 0.5h-160.8c-2.6 0-3.9 0-4.9-0.5-0.9-0.4-1.6-1.1-2.1-2-0.5-1-0.5-2.3-0.5-4.9z"/>
					<text id="Text layer 48" style="transform: matrix(1,0,0,1,273,11)" >
						<tspan x="0" y="7.6" class="t8"> </tspan><tspan  y="7.6" class="t8"> </tspan><tspan  y="7.6" class="t8"> </tspan><tspan  y="7.6" class="t8">s</tspan><tspan  y="7.6" class="t8">r</tspan><tspan  y="7.6" class="t8">e</tspan><tspan  y="7.6" class="t8">e</tspan><tspan  y="7.6" class="t8">h</tspan><tspan  y="7.6" class="t8">a</tspan><tspan  y="7.6" class="t8">r</tspan><tspan  y="7.6" class="t8">i</tspan><tspan  y="7.6" class="t8">.</tspan><tspan  y="7.6" class="t8">t</tspan><tspan  y="7.6" class="t8">e</tspan><tspan  y="7.6" class="t8">c</tspan><tspan  y="7.6" class="t8">h
</tspan>
					</text>
					<g id="Clip-Path" clip-path="url(#cp6)">
						<g>
							<path class="s9" d="m400.4 15.3q0.2 0 0.3-0.1l1.9-1.9q0.2-0.1 0.2-0.3 0-0.2-0.2-0.3l-1.9-1.9q-0.1-0.2-0.3-0.2c-0.2 0-0.4 0.2-0.4 0.5q0 0.2 0.1 0.3l1.1 1.1q-0.3-0.1-0.7-0.1c-2.2 0-4 1.8-4 4.1 0 2.2 1.8 4.1 4.1 4.1 2.2 0 4-1.9 4-4.1 0-0.3-0.2-0.5-0.4-0.5-0.3 0-0.5 0.2-0.5 0.5 0 1.7-1.4 3.1-3.1 3.1-1.8 0-3.2-1.4-3.2-3.1 0-1.8 1.4-3.2 3.1-3.2q0.5 0 0.9 0.1l-1.3 1.2q-0.1 0.1-0.1 0.3c0 0.3 0.2 0.4 0.4 0.4z"/>
						</g>
					</g>
					<path class="s10" d="m248 10.2c-1.6 0-2.9 1.3-2.9 2.9v1.7h-0.6c-0.6 0-1.2 0.6-1.2 1.2v4.7c0 0.6 0.6 1.1 1.2 1.1h7c0.6 0 1.2-0.5 1.2-1.1v-4.7c0-0.6-0.6-1.2-1.2-1.2h-0.6v-1.7c0-1.6-1.3-2.9-2.9-2.9zm3.5 5.8v4.7h-7v-4.7zm-5.3-1.2v-1.7c0-1 0.8-1.8 1.8-1.8 1 0 1.7 0.8 1.7 1.8v1.7z"/>
				</g>
			</g>
		</g>
	</g>
</svg>